# xmcd
#
# Track frame offsets:
#	150
#	16875
#	32159
#	52065
#	67353
#	86579
#	221095
#	221845
#	222595
#	223345
#	224095
#	224845
#	225595
#	237745
#
# Disc length: 3215 seconds
#
# Revision: 1
# Processed by: cddbd v1.5.2PL0 Copyright (c) Steve Scherf et al.
# Submitted via: audiograbber 1.83.01
#
DISCID=010c8d0e
DTITLE=Ciara - Goodies
DYEAR=1900
DGENRE=
TTITLE0=Goodies
TTITLE1=1,2 Step
TTITLE2=ThugStyle
TTITLE3=Hotline
TTITLE4=Oh
TTITLE5=Pick up the phone
TTITLE6=Lookin´ at you
TTITLE7=Ooh Baby
TTITLE8=Next to you feat. R. Kelly
TTITLE9=And I
TTITLE10=Other Chicks
TTITLE11=The Title
TTITLE12=Goodies feat. T.I. and Jazze Pha
TTITLE13=Daten-CD
EXTD=
EXTT0=
EXTT1=
EXTT2=
EXTT3=
EXTT4=
EXTT5=
EXTT6=
EXTT7=
EXTT8=
EXTT9=
EXTT10=
EXTT11=
EXTT12=
EXTT13=
PLAYORDER=
